<svg width="100" height="58" viewBox="0 0 100 58" fill="none" xmlns="http://www.w3.org/2000/svg">
<path d="M43.3888 57.2302H55.8369V57.2416C56.716 57.2416 57.4373 56.526 57.4373 55.6411V42.1846L69.0907 48.9129C69.4627 49.1213 69.8909 49.1833 70.3078 49.0707C70.7249 48.958 71.0686 48.693 71.2827 48.3211L77.5095 37.5411C77.9546 36.7747 77.6899 35.7943 76.9234 35.3492L65.2701 28.6207L76.9234 21.8924C77.6899 21.4473 77.9492 20.4667 77.5095 19.7004L71.2827 8.92047C71.0686 8.54852 70.7192 8.28354 70.3078 8.17089C69.8909 8.05823 69.4627 8.11456 69.0907 8.32869L57.4373 15.057V1.60042C57.4373 0.721308 56.7217 0 55.8369 0H43.3888C42.5099 0 41.7886 0.715612 41.7886 1.60042V15.057L30.135 8.32869C29.3688 7.88924 28.3882 8.14831 27.943 8.91477L21.7163 19.6947C21.2711 20.4612 21.5359 21.4416 22.3023 21.8867L33.9557 28.6152L22.3023 35.3435C21.5359 35.7886 21.2768 36.7692 21.7163 37.5354L27.943 48.3156C28.3882 49.0819 29.3688 49.3411 30.135 48.9015L41.7886 42.1732V55.63C41.7886 56.5091 42.5042 57.2302 43.3888 57.2302Z" fill="black"/>
</svg>
