<svg width="91" height="39" viewBox="0 0 91 39" fill="none" xmlns="http://www.w3.org/2000/svg">
<path d="M61.0141 10.1074H15.5358C6.95563 10.1074 0 16.3584 0 24.0694C0 31.7804 6.95563 38.0314 15.5358 38.0314H61.0141C69.5943 38.0314 76.5499 31.7804 76.5499 24.0694C76.5499 16.3584 69.5943 10.1074 61.0141 10.1074Z" fill="#4F91FF"/>
<path d="M16.903 29.2366C16.0017 29.2366 15.2158 29.0192 14.5454 28.5846C13.8749 28.1401 13.4023 27.5227 13.1275 26.7325L14.8422 26.0954C15.1829 27.1326 15.8699 27.6512 16.903 27.6512C17.4745 27.6512 17.9307 27.4783 18.2715 27.1326C18.6122 26.777 18.7825 26.3127 18.7825 25.7398V18.3906H20.6126V25.6805C20.6126 26.4312 20.4532 27.0733 20.1345 27.6067C19.8157 28.1401 19.3761 28.5451 18.8155 28.8217C18.255 29.0983 17.6175 29.2366 16.903 29.2366ZM25.5808 29.2366C24.9763 29.2366 24.4377 29.1328 23.965 28.9254C23.4925 28.7081 23.1243 28.4068 22.8604 28.0216C22.5966 27.6265 22.4648 27.182 22.4648 26.6881C22.4648 25.9077 22.789 25.2903 23.4375 24.836C24.097 24.3816 24.9268 24.1544 25.927 24.1544C26.4216 24.1544 26.8668 24.1988 27.2625 24.2877C27.6582 24.3668 27.9714 24.4557 28.2023 24.5544V24.1692C28.2023 23.7049 28.0099 23.3296 27.6252 23.0431C27.2405 22.7468 26.7459 22.5986 26.1413 22.5986C25.7127 22.5986 25.306 22.6826 24.9213 22.8505C24.5477 23.0184 24.2453 23.2506 24.0146 23.5469L22.7451 22.6727C23.1187 22.2084 23.6024 21.8479 24.1959 21.5911C24.7895 21.3343 25.4489 21.2058 26.1744 21.2058C27.3943 21.2058 28.3342 21.4775 28.9937 22.0208C29.6531 22.5542 29.9829 23.3098 29.9829 24.2877V28.9995H28.2023V28.0957H28.1198C27.878 28.4216 27.5372 28.6933 27.0976 28.9106C26.6579 29.1279 26.1523 29.2366 25.5808 29.2366ZM25.8941 27.8882C26.3337 27.8882 26.7294 27.7944 27.0811 27.6067C27.4328 27.419 27.7076 27.1671 27.9054 26.8511C28.1034 26.535 28.2023 26.1942 28.2023 25.8287C27.9495 25.7003 27.6527 25.5966 27.3119 25.5175C26.9822 25.4385 26.636 25.399 26.2733 25.399C25.5918 25.399 25.0917 25.5225 24.773 25.7694C24.4542 26.0065 24.2949 26.3176 24.2949 26.7029C24.2949 27.0486 24.4432 27.3351 24.7399 27.5623C25.0367 27.7796 25.4214 27.8882 25.8941 27.8882ZM32.0838 21.4429H33.815V22.4356H33.8974C34.1502 22.0702 34.5074 21.7738 34.9691 21.5466C35.4307 21.3194 35.9254 21.2058 36.4529 21.2058C37.0575 21.2058 37.585 21.3343 38.0357 21.5911C38.4863 21.838 38.8106 22.1689 39.0084 22.5838C39.2941 22.1689 39.6734 21.838 40.146 21.5911C40.6296 21.3343 41.1957 21.2058 41.8442 21.2058C42.8113 21.2058 43.5423 21.4725 44.0369 22.0059C44.5425 22.5295 44.7953 23.2456 44.7953 24.1544V28.9995H42.9818V24.4359C42.9818 23.2901 42.4377 22.7172 41.3496 22.7172C40.7671 22.7172 40.2889 22.9295 39.9152 23.3543C39.5415 23.779 39.3547 24.3026 39.3547 24.9249V28.9995H37.541V24.4359C37.541 23.2901 36.9805 22.7172 35.8594 22.7172C35.2878 22.7172 34.8152 22.9295 34.4414 23.3543C34.0788 23.779 33.8974 24.3026 33.8974 24.9249V28.9995H32.0838V21.4429ZM50.8303 29.2366C50.006 29.2366 49.264 29.0637 48.6045 28.718C47.956 28.3722 47.445 27.8981 47.0713 27.2956C46.7085 26.6831 46.5272 25.9966 46.5272 25.236C46.5272 24.5149 46.7031 23.8482 47.0547 23.2357C47.4175 22.6134 47.9176 22.1195 48.5551 21.7541C49.1926 21.3886 49.918 21.2058 50.7314 21.2058C51.5777 21.2058 52.3087 21.3738 52.9241 21.7096C53.5507 22.0455 54.0233 22.5048 54.3421 23.0876C54.6718 23.6704 54.8367 24.3273 54.8367 25.0582C54.8367 25.1965 54.8202 25.3694 54.7871 25.5768H48.3408C48.4067 26.2781 48.6815 26.8214 49.1651 27.2067C49.6597 27.582 50.2313 27.7697 50.8798 27.7697C51.3963 27.7697 51.8415 27.666 52.2152 27.4585C52.5999 27.2412 52.9076 26.9498 53.1385 26.5843L54.6718 27.2363C54.2761 27.8586 53.7595 28.3475 53.122 28.7032C52.4845 29.0588 51.7206 29.2366 50.8303 29.2366ZM52.9901 24.3322C52.9682 24.0655 52.8747 23.8037 52.7098 23.5469C52.545 23.2802 52.2922 23.0579 51.9514 22.8801C51.6217 22.7023 51.215 22.6134 50.7314 22.6134C50.1489 22.6134 49.6543 22.7715 49.2476 23.0876C48.8519 23.3938 48.577 23.8087 48.4231 24.3322H52.9901ZM59.7599 29.2366C58.7926 29.2366 58.0012 29.0489 57.3858 28.6735C56.7702 28.2883 56.3361 27.7993 56.0832 27.2067L57.699 26.5695C57.8969 26.9646 58.1716 27.2659 58.5233 27.4734C58.8861 27.6808 59.2982 27.7845 59.7599 27.7845C60.2106 27.7845 60.5898 27.7154 60.8976 27.5771C61.2052 27.4289 61.3591 27.2116 61.3591 26.9251C61.3591 26.6486 61.2273 26.4312 60.9634 26.2732C60.6997 26.1151 60.293 25.9769 59.7434 25.8583L58.7376 25.6361C58.0672 25.4879 57.5122 25.2261 57.0725 24.8508C56.6328 24.4754 56.4131 24.0013 56.4131 23.4284C56.4131 22.9839 56.5559 22.5937 56.8417 22.2578C57.1384 21.922 57.5341 21.6652 58.0287 21.4874C58.5233 21.2997 59.0619 21.2058 59.6445 21.2058C60.4249 21.2058 61.1119 21.3491 61.7054 21.6355C62.2989 21.9121 62.7275 22.3171 62.9914 22.8505L61.4086 23.4728C61.0898 22.89 60.5073 22.5986 59.661 22.5986C59.2543 22.5986 58.9136 22.6727 58.6387 22.8209C58.364 22.969 58.2266 23.1617 58.2266 23.3987C58.2266 23.6259 58.3311 23.8136 58.5398 23.9618C58.7487 24.1001 59.0564 24.2186 59.4631 24.3174L60.6997 24.5989C61.524 24.7866 62.145 25.073 62.5627 25.4583C62.9914 25.8336 63.2057 26.2979 63.2057 26.8511C63.2057 27.3252 63.0518 27.745 62.744 28.1105C62.4472 28.4661 62.0351 28.7427 61.5075 28.9402C60.9799 29.1378 60.3974 29.2366 59.7599 29.2366Z" fill="white"/>
<path d="M86.5896 0.272535C88.1666 -0.10721 89.6096 1.18964 89.1871 2.60687L85.6807 14.3674C85.1457 16.1616 82.3623 16.2784 81.6436 14.5369L79.7288 9.89693C79.514 9.3763 79.0571 8.96576 78.4778 8.77267L73.3149 7.05182C71.377 6.40593 71.507 3.90449 73.5034 3.42376L86.5896 0.272535Z" fill="#4F91FF"/>
</svg>
