<svg width="217" height="116" viewBox="0 0 217 116" fill="none" xmlns="http://www.w3.org/2000/svg">
<path d="M187.601 14.6311L61.6415 2.85647C45.5384 1.35116 30.2 7.10481 27.3823 15.7076L5.34203 82.999C2.52431 91.6019 13.2943 99.7961 29.3975 101.301L155.357 113.076C171.46 114.581 186.798 108.828 189.616 100.225L211.657 32.9334C214.474 24.3306 203.704 16.1364 187.601 14.6311Z" fill="#4285F4"/>
<path d="M118.057 88.2548L108.761 87.3858C107.718 87.2883 107.025 86.7571 107.207 86.2034L110.604 75.8305C110.786 75.2737 111.781 74.9035 112.817 75.0004L120.187 75.6893C121.699 75.8307 123.06 75.6659 124.341 75.1881C125.616 74.7097 126.402 73.9812 126.736 72.9617L129.373 64.9079C129.851 63.4488 130.817 62.2837 132.247 61.4473C133.499 60.7118 135.185 60.2654 137.268 60.121C135.402 59.6043 134.093 58.8811 133.388 57.9627C132.582 56.9138 132.407 55.6455 132.885 54.1865L135.523 46.1327C135.857 45.1133 135.581 44.2853 134.687 43.6009C133.792 42.9198 132.616 42.518 131.105 42.3767L123.734 41.6877C122.692 41.5902 121.999 41.0588 122.18 40.5052L125.58 30.1258C125.762 29.569 126.757 29.1988 127.793 29.2957L137.09 30.1648C144.351 30.8434 149.634 32.4381 152.809 34.9033C155.979 37.368 156.951 40.54 155.709 44.3307L153.718 50.408C153.194 52.0103 153.593 53.2291 154.894 54.0321C156.232 54.8552 158.101 55.3858 160.442 55.6046L161.996 55.7499C163.039 55.8474 163.732 56.3786 163.55 56.9323L159.965 67.8782C159.783 68.4352 158.788 68.8054 157.752 68.7085L156.197 68.5632C153.85 68.3439 151.762 68.5044 149.979 69.0358C148.239 69.5546 147.095 70.6291 146.57 72.2314L144.58 78.3086C143.351 82.0603 140.42 84.854 135.871 86.6173C131.316 88.3832 125.324 88.934 118.063 88.2554L118.057 88.2548Z" fill="black"/>
<path d="M98.8853 26.5888L108.182 27.458C109.225 27.5554 109.917 28.0867 109.736 28.6402L106.338 39.0131C106.156 39.5698 105.162 39.9402 104.125 39.8432L96.7551 39.1543C95.2432 39.013 93.8826 39.178 92.6014 39.6556C91.3264 40.1339 90.5409 40.8627 90.207 41.882L87.5691 49.9358C87.0912 51.3948 86.1255 52.5599 84.6955 53.3964C83.4429 54.1318 81.7573 54.5783 79.6743 54.7226C81.5408 55.2395 82.8497 55.9625 83.5543 56.881C84.3602 57.9298 84.5354 59.1981 84.0575 60.6571L81.4195 68.7112C81.0856 69.7305 81.3615 70.5583 82.2555 71.2427C83.1507 71.9238 84.3257 72.3258 85.8376 72.4671L93.2077 73.1561C94.2503 73.2536 94.9435 73.7848 94.7621 74.3385L91.3624 84.7178C91.1801 85.2746 90.1854 85.6448 89.149 85.5479L79.8524 84.6789C72.5919 84.0002 67.309 82.4054 64.1334 79.9403C60.9635 77.4756 59.9919 74.3037 61.2336 70.5129L63.224 64.4357C63.7489 62.8334 63.35 61.6147 62.0487 60.8115C60.7097 59.9884 58.8415 59.458 56.5008 59.2392L54.9462 59.0939C53.9039 58.9964 53.2108 58.465 53.3921 57.9113L56.9773 46.9654C57.1597 46.4086 58.1542 46.0384 59.1906 46.1353L60.7453 46.2806C63.0922 46.5 65.1803 46.3392 66.9629 45.8078C68.7035 45.2892 69.8472 44.2146 70.372 42.6123L72.3624 36.5353C73.5912 32.7834 76.5229 29.9896 81.0714 28.2264C85.6268 26.4604 91.6185 25.9096 98.8792 26.5883L98.8853 26.5888Z" fill="black"/>
</svg>
