<svg width="88" height="38" viewBox="0 0 88 38" fill="none" xmlns="http://www.w3.org/2000/svg">
<path d="M72.1413 10H28.8885C20.3083 10 13.3527 16.251 13.3527 23.962C13.3527 31.673 20.3083 37.924 28.8885 37.924H72.1413C80.7215 37.924 87.6771 31.673 87.6771 23.962C87.6771 16.251 80.7215 10 72.1413 10Z" fill="#FDADEE"/>
<path d="M27.3869 18.2832H34.5588V19.8686H29.2335V22.8023H34.0312V24.3729H29.2335V27.3067H34.5588V28.8921H27.3869V18.2832ZM36.5209 21.3355H38.2521V22.3282H38.3345C38.5874 21.9627 38.9445 21.6664 39.4062 21.4392C39.8678 21.212 40.3624 21.0984 40.89 21.0984C41.4946 21.0984 42.0221 21.2268 42.4728 21.4836C42.9234 21.7306 43.2477 22.0615 43.4455 22.4764C43.7312 22.0615 44.1105 21.7306 44.5832 21.4836C45.0667 21.2268 45.6328 21.0984 46.2813 21.0984C47.2485 21.0984 47.9794 21.3651 48.474 21.8985C48.9796 22.422 49.2324 23.1382 49.2324 24.0469V28.8921H47.4188V24.3285C47.4188 23.1826 46.8748 22.6097 45.7867 22.6097C45.2042 22.6097 44.726 22.8221 44.3523 23.2468C43.9786 23.6716 43.7917 24.1951 43.7917 24.8174V28.8921H41.9782V24.3285C41.9782 23.1826 41.4176 22.6097 40.2965 22.6097C39.7249 22.6097 39.2523 22.8221 38.8786 23.2468C38.5159 23.6716 38.3345 24.1951 38.3345 24.8174V28.8921H36.5209V21.3355ZM51.426 21.3355H53.157V22.3282H53.2395C53.4923 21.9627 53.8495 21.6664 54.3111 21.4392C54.7728 21.212 55.2674 21.0984 55.795 21.0984C56.3995 21.0984 56.9271 21.2268 57.3778 21.4836C57.8283 21.7306 58.1526 22.0615 58.3504 22.4764C58.6363 22.0615 59.0155 21.7306 59.4881 21.4836C59.9717 21.2268 60.5377 21.0984 61.1862 21.0984C62.1535 21.0984 62.8844 21.3651 63.379 21.8985C63.8847 22.422 64.1374 23.1382 64.1374 24.0469V28.8921H62.3239V24.3285C62.3239 23.1826 61.7797 22.6097 60.6916 22.6097C60.1091 22.6097 59.631 22.8221 59.2573 23.2468C58.8835 23.6716 58.6967 24.1951 58.6967 24.8174V28.8921H56.8831V24.3285C56.8831 23.1826 56.3226 22.6097 55.2014 22.6097C54.6299 22.6097 54.1572 22.8221 53.7836 23.2468C53.4208 23.6716 53.2395 24.1951 53.2395 24.8174V28.8921H51.426V21.3355ZM68.8884 29.1291C68.2838 29.1291 67.7453 29.0254 67.2726 28.818C66.8 28.6007 66.4318 28.2994 66.168 27.9141C65.9042 27.519 65.7723 27.0745 65.7723 26.5806C65.7723 25.8003 66.0965 25.1829 66.745 24.7285C67.4045 24.2741 68.2343 24.0469 69.2345 24.0469C69.7291 24.0469 70.1743 24.0914 70.57 24.1803C70.9657 24.2593 71.2789 24.3482 71.5097 24.447V24.0618C71.5097 23.5975 71.3174 23.2221 70.9328 22.9357C70.548 22.6394 70.0534 22.4912 69.4488 22.4912C69.0202 22.4912 68.6135 22.5751 68.2289 22.7431C67.8551 22.911 67.5529 23.1431 67.3221 23.4395L66.0526 22.5653C66.4262 22.101 66.9099 21.7405 67.5035 21.4836C68.097 21.2268 68.7564 21.0984 69.4819 21.0984C70.7019 21.0984 71.6417 21.37 72.3012 21.9133C72.9606 22.4467 73.2904 23.2024 73.2904 24.1803V28.8921H71.5097V27.9882H71.4274C71.1855 28.3142 70.8448 28.5858 70.4051 28.8031C69.9655 29.0205 69.4599 29.1291 68.8884 29.1291ZM69.2016 27.7808C69.6412 27.7808 70.0369 27.6869 70.3886 27.4993C70.7404 27.3116 71.0151 27.0597 71.213 26.7436C71.4108 26.4275 71.5097 26.0867 71.5097 25.7213C71.257 25.5928 70.9603 25.4891 70.6194 25.4101C70.2897 25.3311 69.9435 25.2916 69.5808 25.2916C68.8993 25.2916 68.3992 25.415 68.0804 25.662C67.7617 25.8991 67.6024 26.2102 67.6024 26.5954C67.6024 26.9412 67.7507 27.2276 68.0475 27.4548C68.3442 27.6721 68.7289 27.7808 69.2016 27.7808Z" fill="black"/>
<path d="M3.71483 0.165601C2.13785 -0.214144 0.694811 1.0827 1.11736 2.49993L4.6238 14.2604C5.15872 16.0546 7.94213 16.1714 8.66083 14.4299L10.5757 9.78999C10.7905 9.26936 11.2473 8.85882 11.8267 8.66573L16.9896 6.94488C18.9274 6.29899 18.7975 3.79755 16.801 3.31682L3.71483 0.165601Z" fill="#FDADEE"/>
</svg>
