<svg width="322" height="64" viewBox="0 0 322 64" fill="none" xmlns="http://www.w3.org/2000/svg">
  <defs>
    <!-- Main gradient for the flame -->
    <linearGradient id="flameGradient1" x1="0%" y1="0%" x2="100%" y2="100%">
      <stop offset="0%" style="stop-color:#FF6B35;stop-opacity:1" />
      <stop offset="40%" style="stop-color:#FF8A00;stop-opacity:1" />
      <stop offset="80%" style="stop-color:#FFA726;stop-opacity:1" />
      <stop offset="100%" style="stop-color:#FFB74D;stop-opacity:1" />
    </linearGradient>
    
    <!-- Secondary gradient -->
    <linearGradient id="flameGradient2" x1="0%" y1="0%" x2="100%" y2="100%">
      <stop offset="0%" style="stop-color:#FFCC02;stop-opacity:1" />
      <stop offset="50%" style="stop-color:#FFA726;stop-opacity:1" />
      <stop offset="100%" style="stop-color:#FF8A00;stop-opacity:1" />
    </linearGradient>
  </defs>
  
  <!-- Firebase Flame Icon -->
  <g transform="translate(12, 8)">
    <!-- Main flame shape - left part -->
    <path d="M8.5 6.5C7.2 5.8 5.8 7.2 6.5 8.5L10.5 16.5L8.5 28.5C8.2 30.8 10.5 32.5 12.5 31.5L20.5 28.5L8.5 6.5Z" 
          fill="url(#flameGradient1)"/>
    
    <!-- Main flame shape - right part -->
    <path d="M20.5 28.5L24.5 20.5C25.2 19.2 24.8 17.8 23.5 17.5L20.5 16.5C19.2 16.2 18.5 14.8 19.2 13.5L22.5 8.5C23.2 7.2 22.8 5.8 21.5 6.5L12.5 11.5L20.5 28.5Z" 
          fill="url(#flameGradient2)"/>
    
    <!-- Bottom flame base -->
    <path d="M12.5 31.5C10.5 32.5 8.2 30.8 8.5 28.5L10.5 16.5L12.5 11.5L21.5 6.5L20.5 28.5L12.5 31.5Z" 
          fill="#FF6B35" opacity="0.6"/>
  </g>
  
  <!-- "Firebase Studio" Text -->
  <g transform="translate(56, 0)">
    <!-- Firebase -->
    <text x="0" y="24" font-family="Inter, system-ui, -apple-system, BlinkMacSystemFont, sans-serif" 
          font-size="18" font-weight="600" fill="white" letter-spacing="-0.02em">Firebase</text>
    
    <!-- Studio -->
    <text x="0" y="44" font-family="Inter, system-ui, -apple-system, BlinkMacSystemFont, sans-serif" 
          font-size="18" font-weight="400" fill="white" letter-spacing="-0.02em">Studio</text>
  </g>
</svg>
