<svg width="896" height="213" viewBox="0 0 896 213" fill="none" xmlns="http://www.w3.org/2000/svg">
<path d="M875.426 0.900879H651.68C640.597 0.900879 631.613 9.88516 631.613 20.9678V189.53C631.613 200.613 640.597 209.597 651.68 209.597H875.426C886.509 209.597 895.493 200.613 895.493 189.53V20.9678C895.493 9.88516 886.509 0.900879 875.426 0.900879Z" fill="black" fill-opacity="0.6"/>
<path d="M875.426 0.900879H651.68C640.597 0.900879 631.613 9.88516 631.613 20.9678V189.53C631.613 200.613 640.597 209.597 651.68 209.597H875.426C886.509 209.597 895.493 200.613 895.493 189.53V20.9678C895.493 9.88516 886.509 0.900879 875.426 0.900879Z" fill="#1F1F1F" fill-opacity="0.3"/>
<path d="M665.726 26.6533C661.111 26.6533 657.366 30.3991 657.366 35.0145C657.366 39.6299 661.111 43.3757 665.726 43.3757C670.342 43.3757 674.087 39.6299 674.087 35.0145C674.087 30.3991 670.342 26.6533 665.726 26.6533ZM664.054 39.1952L659.874 35.0145L661.053 33.8356L664.054 36.8289L670.4 30.4827L671.579 31.6701L664.054 39.1952Z" fill="#34A853"/>
<path d="M684.967 40.0312V29.9737H688.324C689.776 29.9737 690.903 30.4138 691.709 31.2941C692.515 32.1744 692.917 33.4105 692.917 35.0024C692.917 36.5851 692.515 37.8213 691.709 38.7108C690.903 39.5912 689.776 40.0312 688.324 40.0312H684.967ZM686.161 38.8934H688.31C689.368 38.8934 690.201 38.5844 690.81 37.9663C691.419 37.3389 691.723 36.3509 691.723 35.0024C691.723 33.6539 691.419 32.6707 690.81 32.0526C690.201 31.4252 689.368 31.1115 688.31 31.1115H686.161V38.8934ZM697.238 40.256C696.545 40.256 695.941 40.0874 695.426 39.7503C694.92 39.4038 694.527 38.9356 694.246 38.3456C693.975 37.7556 693.838 37.0908 693.838 36.351C693.838 35.5924 693.979 34.9182 694.26 34.3282C694.551 33.7289 694.948 33.2606 695.454 32.9235C695.969 32.5864 696.559 32.4178 697.224 32.4178C698.282 32.4178 699.102 32.7316 699.682 33.359C700.263 33.977 700.553 34.8246 700.553 35.9014C700.553 36.0233 700.549 36.145 700.539 36.2667C700.539 36.379 700.535 36.4774 700.525 36.5617H695.018C695.056 37.3951 695.276 38.0413 695.678 38.5001C696.091 38.9496 696.625 39.1744 697.28 39.1744C697.87 39.1744 698.315 39.0527 698.614 38.8092C698.923 38.5563 699.148 38.2332 699.288 37.8399L700.328 38.1209C700.178 38.7203 699.846 39.2259 699.331 39.6379C698.825 40.05 698.128 40.256 697.238 40.256ZM697.224 33.4854C696.662 33.4854 696.189 33.6634 695.805 34.0192C695.431 34.3751 695.187 34.8948 695.074 35.5784H699.317C699.298 34.9416 699.116 34.436 698.769 34.0613C698.432 33.6774 697.917 33.4854 697.224 33.4854ZM702.022 43.0654V32.6426H703.145V33.7242H703.201C703.388 33.3684 703.693 33.064 704.115 32.8111C704.545 32.549 705.023 32.4178 705.547 32.4178C706.212 32.4178 706.792 32.5818 707.289 32.9095C707.785 33.2373 708.169 33.6961 708.441 34.2861C708.712 34.876 708.848 35.5597 708.848 36.3369C708.848 37.1142 708.708 37.7978 708.427 38.3877C708.155 38.9777 707.771 39.4366 707.275 39.7643C706.787 40.0921 706.212 40.256 705.547 40.256C704.975 40.256 704.489 40.139 704.086 39.9048C703.683 39.6614 703.388 39.3805 703.201 39.062H703.145L703.201 40.0312V43.0654H702.022ZM705.421 39.1744C706.085 39.1744 706.624 38.931 707.036 38.4439C707.458 37.957 707.668 37.2547 707.668 36.3369C707.668 35.4192 707.458 34.7169 707.036 34.2299C706.624 33.7429 706.085 33.4994 705.421 33.4994C704.765 33.4994 704.222 33.7429 703.791 34.2299C703.36 34.7169 703.145 35.4192 703.145 36.3369C703.145 37.2547 703.36 37.957 703.791 38.4439C704.222 38.931 704.765 39.1744 705.421 39.1744ZM710.18 40.0312V29.1309H711.36V40.0312H710.18ZM716.312 40.256C715.592 40.256 714.964 40.0921 714.43 39.7643C713.906 39.4272 713.499 38.9637 713.208 38.3737C712.918 37.7837 712.772 37.1049 712.772 36.3369C712.772 35.5597 712.918 34.8807 713.208 34.3001C713.499 33.7101 713.906 33.2513 714.43 32.9235C714.964 32.5864 715.592 32.4178 716.312 32.4178C717.034 32.4178 717.657 32.5864 718.18 32.9235C718.705 33.2513 719.108 33.7101 719.388 34.3001C719.679 34.8807 719.824 35.5597 719.824 36.3369C719.824 37.1049 719.679 37.7837 719.388 38.3737C719.108 38.9637 718.705 39.4272 718.18 39.7643C717.657 40.0921 717.034 40.256 716.312 40.256ZM716.312 39.1744C717.006 39.1744 717.567 38.9262 717.998 38.4299C718.429 37.9336 718.644 37.2359 718.644 36.3369C718.644 35.4379 718.429 34.7403 717.998 34.2439C717.567 33.7477 717.006 33.4994 716.312 33.4994C715.629 33.4994 715.062 33.7477 714.613 34.2439C714.173 34.7403 713.952 35.4379 713.952 36.3369C713.952 37.2359 714.173 37.9336 714.613 38.4299C715.062 38.9262 715.629 39.1744 716.312 39.1744ZM721.516 43.0654C721.338 43.0654 721.164 43.0513 720.996 43.0232C720.836 42.9951 720.678 42.9484 720.518 42.8827V41.7871C720.583 41.8246 720.687 41.8714 720.827 41.9276C720.977 41.9837 721.15 42.0118 721.347 42.0118C721.656 42.0118 721.909 41.9182 722.106 41.7309C722.311 41.5437 722.513 41.2066 722.71 40.7195L723.019 39.9329L720.181 32.6426H721.459L723.609 38.3877H723.623L725.772 32.6426H727.022L723.721 41.0145C723.431 41.7544 723.112 42.2787 722.766 42.5878C722.42 42.9062 722.002 43.0654 721.516 43.0654ZM730.789 40.256C730.095 40.256 729.491 40.0874 728.976 39.7503C728.471 39.4038 728.077 38.9356 727.797 38.3456C727.525 37.7556 727.389 37.0908 727.389 36.351C727.389 35.5924 727.53 34.9182 727.811 34.3282C728.101 33.7289 728.499 33.2606 729.005 32.9235C729.519 32.5864 730.109 32.4178 730.774 32.4178C731.833 32.4178 732.652 32.7316 733.233 33.359C733.814 33.977 734.104 34.8246 734.104 35.9014C734.104 36.0233 734.099 36.145 734.09 36.2667C734.09 36.379 734.084 36.4774 734.075 36.5617H728.569C728.606 37.3951 728.827 38.0413 729.229 38.5001C729.642 38.9496 730.176 39.1744 730.831 39.1744C731.421 39.1744 731.865 39.0527 732.165 38.8092C732.474 38.5563 732.699 38.2332 732.839 37.8399L733.879 38.1209C733.729 38.7203 733.396 39.2259 732.882 39.6379C732.376 40.05 731.678 40.256 730.789 40.256ZM730.774 33.4854C730.213 33.4854 729.74 33.6634 729.356 34.0192C728.981 34.3751 728.738 34.8948 728.625 35.5784H732.867C732.848 34.9416 732.666 34.436 732.32 34.0613C731.982 33.6774 731.468 33.4854 730.774 33.4854ZM738.506 40.256C737.841 40.256 737.26 40.0921 736.764 39.7643C736.268 39.4272 735.884 38.9637 735.613 38.3737C735.341 37.7837 735.205 37.1049 735.205 36.3369C735.205 35.5597 735.341 34.8807 735.613 34.3001C735.884 33.7101 736.263 33.2513 736.75 32.9235C737.246 32.5864 737.827 32.4178 738.492 32.4178C739.054 32.4178 739.541 32.5442 739.953 32.7971C740.364 33.0499 740.659 33.3356 740.838 33.654H740.894L740.838 32.6426V29.1309H742.018V40.0312H740.894V38.9918H740.838C740.659 39.3196 740.364 39.6145 739.953 39.8767C739.541 40.1296 739.058 40.256 738.506 40.256ZM738.633 39.1744C739.297 39.1744 739.841 38.931 740.262 38.4439C740.684 37.957 740.894 37.2547 740.894 36.3369C740.894 35.4192 740.684 34.7169 740.262 34.2299C739.841 33.7429 739.297 33.4994 738.633 33.4994C737.968 33.4994 737.425 33.7429 737.003 34.2299C736.591 34.7169 736.385 35.4192 736.385 36.3369C736.385 37.2547 736.591 37.957 737.003 38.4439C737.425 38.931 737.968 39.1744 738.633 39.1744Z" fill="#34A853"/>
<mask id="mask0_1_990" style="mask-type:alpha" maskUnits="userSpaceOnUse" x="655" y="45" width="217" height="140">
<path d="M871.413 45.2104H655.693V184.498H871.413V45.2104Z" fill="white"/>
</mask>
<g mask="url(#mask0_1_990)">
<path fill-rule="evenodd" clip-rule="evenodd" d="M588.139 126.303L596.581 123.035L605.022 129.244H613.463L621.904 123.035L630.345 129.244L638.787 123.035H647.228L655.669 121.075L664.11 131.531L672.551 142.967L680.992 133.818L689.434 131.531L697.875 137.739L706.316 117.481L714.757 121.075L723.198 114.54L731.64 117.481L740.081 112.579L748.523 102.451L756.964 97.2224L765.405 107.981L773.846 110.268L782.287 106.347L790.729 107.981L799.17 100.793L807.611 95.5645L816.052 103.733L824.493 97.5251H832.934L841.375 87.7466L849.817 93.9549L858.258 87.7466H866.7L875.141 93.9549V195.223V106.046L866.934 101.797L858.727 107.679L850.52 101.797L842.314 106.046L834.107 107.679L825.9 115.848L817.693 121.729L809.487 140.68H801.28L793.073 133.819L784.866 135.78L776.66 133.819L768.453 137.74L760.246 133.819L752.039 140.68L743.833 150.81L735.626 146.562L727.419 142.968L719.213 154.404H711.005L702.799 147.693L694.592 147.165H686.385L678.179 154.404L669.972 150.81L661.765 146.562L653.559 150.81L645.351 142.968H637.145L628.939 133.819L620.731 135.78L612.525 137.74L604.318 133.819L596.111 142.968H587.905L579.697 146.562V129.244L588.139 126.303Z" fill="#670023" fill-opacity="0.5"/>
<path d="M596.581 123.035L596.987 122.484L596.683 122.26L596.333 122.396L596.581 123.035ZM588.139 126.303L588.364 126.951L588.375 126.947L588.386 126.943L588.139 126.303ZM605.022 129.244L604.616 129.796L604.796 129.929H605.022V129.244ZM613.463 129.244V129.929H613.688L613.869 129.796L613.463 129.244ZM621.904 123.035L622.311 122.484L621.904 122.185L621.498 122.484L621.904 123.035ZM630.345 129.244L629.939 129.796L630.345 130.095L630.752 129.796L630.345 129.244ZM638.787 123.035V122.35H638.562L638.38 122.484L638.787 123.035ZM647.228 123.035V123.722H647.306L647.383 123.704L647.228 123.035ZM655.669 121.075L656.203 120.645L655.933 120.309L655.513 120.407L655.669 121.075ZM664.11 131.531L664.662 131.123L664.653 131.111L664.644 131.1L664.11 131.531ZM672.551 142.967L671.999 143.374L672.492 144.043L673.056 143.433L672.551 142.967ZM680.992 133.818L680.813 133.156L680.622 133.208L680.489 133.353L680.992 133.818ZM689.433 131.531L689.84 130.979L689.574 130.782L689.254 130.87L689.433 131.531ZM697.875 137.74L697.468 138.292L698.173 138.809L698.508 138.003L697.875 137.74ZM706.316 117.481L706.585 116.85L705.949 116.579L705.683 117.217L706.316 117.481ZM714.757 121.075L714.489 121.706L714.859 121.864L715.177 121.618L714.757 121.075ZM723.198 114.54L723.424 113.892L723.073 113.77L722.779 113.997L723.198 114.54ZM731.64 117.481L731.415 118.129L731.712 118.232L731.984 118.074L731.64 117.481ZM740.081 112.58L740.426 113.173L740.53 113.111L740.608 113.019L740.081 112.58ZM748.523 102.451L748.161 101.868L748.066 101.926L747.996 102.011L748.523 102.451ZM756.964 97.2226L757.504 96.7992L757.124 96.3163L756.603 96.6394L756.964 97.2226ZM765.405 107.981L764.865 108.405L765.006 108.583L765.225 108.643L765.405 107.981ZM773.846 110.268L773.667 110.93L773.908 110.995L774.135 110.89L773.846 110.268ZM782.287 106.347L782.418 105.674L782.2 105.631L781.998 105.726L782.287 106.347ZM790.728 107.981L790.598 108.655L790.922 108.718L791.173 108.503L790.728 107.981ZM799.17 100.793L798.808 100.21L798.764 100.237L798.725 100.271L799.17 100.793ZM807.611 95.5646L808.087 95.0717L807.704 94.7002L807.25 94.9815L807.611 95.5646ZM816.052 103.733L815.575 104.227L815.992 104.629L816.458 104.286L816.052 103.733ZM824.493 97.5253V96.8394H824.268L824.087 96.9727L824.493 97.5253ZM832.934 97.5253V98.2112H833.248L833.454 97.9735L832.934 97.5253ZM841.375 87.7468L841.782 87.1942L841.271 86.8184L840.857 87.2986L841.375 87.7468ZM849.817 93.9551L849.41 94.5076L849.817 94.8065L850.223 94.5076L849.817 93.9551ZM858.258 87.7468V87.0609H858.033L857.851 87.1942L858.258 87.7468ZM866.7 87.7468L867.106 87.1942L866.925 87.0609H866.7V87.7468ZM875.141 93.9551H875.826V93.6081L875.547 93.4025L875.141 93.9551ZM875.141 106.046H875.826V105.628L875.456 105.437L875.141 106.046ZM866.934 101.798L867.249 101.189L866.876 100.995L866.534 101.24L866.934 101.798ZM858.727 107.679L858.328 108.237L858.727 108.523L859.127 108.237L858.727 107.679ZM850.52 101.798L850.92 101.241L850.578 100.996L850.205 101.189L850.52 101.798ZM842.314 106.046L842.448 106.718L842.542 106.699L842.629 106.655L842.314 106.046ZM834.107 107.679L833.973 107.007L833.77 107.047L833.623 107.194L834.107 107.679ZM825.9 115.849L826.3 116.405L826.344 116.373L826.384 116.334L825.9 115.849ZM817.693 121.729L817.294 121.172L817.14 121.283L817.064 121.457L817.693 121.729ZM809.487 140.68V141.367H809.937L810.116 140.953L809.487 140.68ZM801.28 140.68L800.84 141.207L801.031 141.367H801.28V140.68ZM793.073 133.819L793.513 133.293L793.249 133.072L792.914 133.152L793.073 133.819ZM784.866 135.78L784.707 136.446L784.866 136.484L785.025 136.446L784.866 135.78ZM776.66 133.819L776.819 133.152L776.583 133.096L776.364 133.2L776.66 133.819ZM768.453 137.741L768.157 138.359L768.453 138.5L768.748 138.359L768.453 137.741ZM760.246 133.819L760.542 133.2L760.144 133.011L759.806 133.293L760.246 133.819ZM752.039 140.68L751.6 140.155L751.549 140.198L751.507 140.249L752.039 140.68ZM743.833 150.81L743.517 151.419L744.014 151.676L744.366 151.242L743.833 150.81ZM735.626 146.562L735.941 145.953L735.922 145.943L735.902 145.934L735.626 146.562ZM727.419 142.968L727.694 142.34L727.185 142.117L726.862 142.569L727.419 142.968ZM719.213 154.404V155.09H719.564L719.77 154.804L719.213 154.404ZM711.005 154.404L710.571 154.935L710.761 155.09H711.005V154.404ZM702.799 147.693L703.234 147.161L703.063 147.023L702.843 147.007L702.799 147.693ZM694.592 147.165L694.636 146.481L694.614 146.479H694.592V147.165ZM686.385 147.165V146.479H686.126L685.932 146.65L686.385 147.165ZM678.179 154.404L677.903 155.032L678.304 155.208L678.632 154.919L678.179 154.404ZM669.972 150.81L669.656 151.419L669.677 151.429L669.697 151.438L669.972 150.81ZM661.765 146.562L662.08 145.953L661.765 145.79L661.45 145.953L661.765 146.562ZM653.559 150.81L653.084 151.306L653.438 151.644L653.874 151.419L653.559 150.81ZM645.351 142.968L645.826 142.472L645.626 142.283H645.351V142.968ZM637.145 142.968L636.634 143.427L636.839 143.654H637.145V142.968ZM628.939 133.819L629.448 133.361L629.176 133.057L628.779 133.152L628.939 133.819ZM612.525 137.741L612.229 138.359L612.448 138.464L612.684 138.408L612.525 137.741ZM604.318 133.819L604.613 133.2L604.15 132.979L603.808 133.361L604.318 133.819ZM596.111 142.968V143.654H596.417L596.622 143.427L596.111 142.968ZM587.905 142.968V142.283H587.761L587.629 142.34L587.905 142.968ZM579.697 146.562H579.012V147.611L579.973 147.19L579.697 146.562ZM579.697 129.244L579.473 128.596L579.012 128.757V129.244H579.697ZM596.333 122.396L587.892 125.663L588.386 126.943L596.828 123.676L596.333 122.396ZM605.428 128.691L596.987 122.484L596.174 123.588L604.616 129.796L605.428 128.691ZM613.463 128.558H605.022V129.929H613.463V128.558ZM621.498 122.484L613.057 128.691L613.869 129.796L622.311 123.588L621.498 122.484ZM630.752 128.691L622.311 122.484L621.498 123.588L629.939 129.796L630.752 128.691ZM638.38 122.484L629.939 128.691L630.752 129.796L639.193 123.588L638.38 122.484ZM647.228 122.35H638.787V123.722H647.228V122.35ZM655.513 120.407L647.072 122.367L647.383 123.704L655.824 121.743L655.513 120.407ZM664.644 131.1L656.203 120.645L655.135 121.506L663.576 131.962L664.644 131.1ZM673.103 142.56L664.662 131.123L663.558 131.938L671.999 143.374L673.103 142.56ZM680.489 133.353L672.047 142.502L673.056 143.433L681.497 134.284L680.489 133.353ZM689.254 130.87L680.813 133.156L681.172 134.481L689.613 132.193L689.254 130.87ZM698.281 137.187L689.84 130.979L689.027 132.084L697.468 138.292L698.281 137.187ZM705.683 117.217L697.242 137.476L698.508 138.003L706.949 117.745L705.683 117.217ZM715.026 120.444L706.585 116.85L706.048 118.112L714.489 121.706L715.026 120.444ZM722.779 113.997L714.338 120.533L715.177 121.618L723.619 115.083L722.779 113.997ZM731.865 116.833L723.424 113.892L722.973 115.188L731.415 118.129L731.865 116.833ZM739.736 111.987L731.295 116.888L731.984 118.074L740.426 113.173L739.736 111.987ZM747.996 102.011L739.554 112.14L740.608 113.019L749.049 102.889L747.996 102.011ZM756.603 96.6394L748.161 101.868L748.884 103.034L757.325 97.8057L756.603 96.6394ZM765.945 107.558L757.504 96.7992L756.424 97.646L764.865 108.405L765.945 107.558ZM774.026 109.607L765.585 107.319L765.225 108.643L773.667 110.93L774.026 109.607ZM781.998 105.726L773.557 109.646L774.135 110.89L782.576 106.969L781.998 105.726ZM790.859 107.308L782.418 105.674L782.157 107.021L790.598 108.655L790.859 107.308ZM798.725 100.271L790.284 107.459L791.173 108.503L799.614 101.315L798.725 100.271ZM807.25 94.9815L798.808 100.21L799.531 101.376L807.972 96.1477L807.25 94.9815ZM816.53 103.24L808.087 95.0717L807.134 96.0575L815.575 104.227L816.53 103.24ZM824.087 96.9727L815.646 103.181L816.458 104.286L824.899 98.0778L824.087 96.9727ZM832.934 96.8394H824.493V98.2112H832.934V96.8394ZM840.857 87.2986L832.416 97.0771L833.454 97.9735L841.895 88.195L840.857 87.2986ZM850.223 93.4025L841.782 87.1942L840.969 88.2993L849.41 94.5076L850.223 93.4025ZM857.851 87.1942L849.41 93.4025L850.223 94.5076L858.665 88.2993L857.851 87.1942ZM866.7 87.0609H858.258V88.4326H866.7V87.0609ZM875.547 93.4025L867.106 87.1942L866.294 88.2993L874.735 94.5076L875.547 93.4025ZM875.826 195.223V93.9551H874.455V195.223H875.826ZM875.826 195.223V106.046H874.455V195.223H875.826ZM875.456 105.437L867.249 101.189L866.619 102.407L874.825 106.655L875.456 105.437ZM866.534 101.24L858.328 107.121L859.127 108.237L867.333 102.355L866.534 101.24ZM859.127 107.121L850.92 101.241L850.121 102.355L858.328 108.237L859.127 107.121ZM850.205 101.189L841.999 105.437L842.629 106.655L850.836 102.407L850.205 101.189ZM842.18 105.373L833.973 107.007L834.241 108.353L842.448 106.718L842.18 105.373ZM833.623 107.194L825.416 115.362L826.384 116.334L834.591 108.166L833.623 107.194ZM825.501 115.291L817.294 121.172L818.093 122.287L826.3 116.405L825.501 115.291ZM817.064 121.457L808.857 140.408L810.116 140.953L818.322 122.002L817.064 121.457ZM809.487 139.995H801.28V141.367H809.487V139.995ZM801.72 140.155L793.513 133.293L792.633 134.345L800.84 141.207L801.72 140.155ZM792.914 133.152L784.707 135.113L785.025 136.446L793.233 134.487L792.914 133.152ZM785.025 135.113L776.819 133.152L776.5 134.487L784.707 136.446L785.025 135.113ZM776.364 133.2L768.157 137.121L768.748 138.359L776.955 134.439L776.364 133.2ZM768.748 137.121L760.542 133.2L759.951 134.439L768.157 138.359L768.748 137.121ZM759.806 133.293L751.6 140.155L752.48 141.207L760.686 134.345L759.806 133.293ZM751.507 140.249L743.299 150.379L744.366 151.242L752.572 141.113L751.507 140.249ZM744.148 150.201L735.941 145.953L735.311 147.171L743.517 151.419L744.148 150.201ZM735.902 145.934L727.694 142.34L727.144 143.596L735.351 147.19L735.902 145.934ZM726.862 142.569L718.655 154.005L719.77 154.804L727.976 143.368L726.862 142.569ZM719.213 153.719H711.005V155.09H719.213V153.719ZM711.44 153.873L703.234 147.161L702.365 148.224L710.571 154.935L711.44 153.873ZM702.843 147.007L694.636 146.481L694.549 147.849L702.755 148.377L702.843 147.007ZM694.592 146.479H686.385V147.85H694.592V146.479ZM685.932 146.65L677.724 153.889L678.632 154.919L686.839 147.679L685.932 146.65ZM678.454 153.776L670.247 150.182L669.697 151.438L677.903 155.032L678.454 153.776ZM670.288 150.201L662.08 145.953L661.45 147.171L669.656 151.419L670.288 150.201ZM661.45 145.953L653.243 150.201L653.874 151.419L662.08 147.171L661.45 145.953ZM654.032 150.315L645.826 142.472L644.878 143.464L653.084 151.306L654.032 150.315ZM645.351 142.283H637.145V143.654H645.351V142.283ZM637.656 142.51L629.448 133.361L628.428 134.277L636.634 143.427L637.656 142.51ZM628.779 133.152L620.572 135.113L620.891 136.446L629.097 134.487L628.779 133.152ZM620.572 135.113L612.365 137.073L612.684 138.408L620.891 136.446L620.572 135.113ZM612.82 137.121L604.613 133.2L604.023 134.439L612.229 138.359L612.82 137.121ZM603.808 133.361L595.6 142.51L596.622 143.427L604.828 134.277L603.808 133.361ZM596.111 142.283H587.905V143.654H596.111V142.283ZM587.629 142.34L579.422 145.934L579.973 147.19L588.18 143.596L587.629 142.34ZM579.012 129.244V146.562H580.384V129.244H579.012ZM587.914 125.655L579.473 128.596L579.923 129.891L588.364 126.951L587.914 125.655Z" fill="#F96E8C"/>
<path fill-rule="evenodd" clip-rule="evenodd" d="M587.905 142.967H596.111L604.318 133.817L612.525 137.738L620.731 135.778L628.938 133.817L637.145 142.967H645.351L653.559 150.809L661.765 146.561L669.972 150.809L678.179 154.403L686.385 147.164H694.592L702.799 147.691L711.005 154.403H719.213L727.419 142.967L735.626 146.561L743.833 150.809L752.039 140.679L760.246 133.817L768.453 137.738L776.66 133.817L784.866 135.778L793.073 133.817L801.28 140.679H809.487L817.693 121.728L825.9 115.846L834.107 107.678L842.314 106.044L850.52 101.796L858.727 107.678L866.934 101.796L875.14 106.044V183.082V147.718L866.934 146.189L858.727 148.305L850.52 146.189L842.314 147.718L834.107 148.305L825.9 151.244L817.693 153.359L809.486 160.178H801.28L793.073 157.71L784.866 158.415L776.66 157.71L768.453 159.121L760.246 157.71L752.039 160.178L743.833 163.822L735.626 162.294L727.419 161.001L719.212 165.116H711.005L702.799 160.431L694.592 154.738H686.385L678.179 165.116L669.972 163.822L661.765 162.294L653.558 163.822L645.351 161.001H637.145L628.938 157.71L620.731 158.415L612.525 159.121L604.318 157.71L596.111 161.001H587.905L579.697 162.294V146.561L587.905 142.967Z" fill="#6B3311" fill-opacity="0.5"/>
<path d="M596.111 142.967V143.652H596.417L596.622 143.425L596.111 142.967ZM587.905 142.967V142.281H587.761L587.629 142.339L587.905 142.967ZM604.318 133.818L604.613 133.2L604.15 132.978L603.808 133.36L604.318 133.818ZM612.525 137.739L612.229 138.358L612.448 138.462L612.684 138.406L612.525 137.739ZM628.938 133.818L629.448 133.36L629.176 133.056L628.779 133.151L628.938 133.818ZM637.145 142.967L636.634 143.425L636.839 143.652H637.145V142.967ZM645.351 142.967L645.826 142.472L645.626 142.281H645.351V142.967ZM653.559 150.809L653.084 151.305L653.438 151.643L653.874 151.418L653.559 150.809ZM661.765 146.561L662.08 145.952L661.765 145.789L661.45 145.952L661.765 146.561ZM669.972 150.809L669.656 151.418L669.677 151.428L669.697 151.437L669.972 150.809ZM678.179 154.403L677.903 155.031L678.304 155.207L678.632 154.917L678.179 154.403ZM686.385 147.164V146.478H686.126L685.932 146.649L686.385 147.164ZM694.592 147.164L694.636 146.479L694.614 146.478H694.592V147.164ZM702.799 147.691L703.234 147.16L703.063 147.021L702.843 147.007L702.799 147.691ZM711.005 154.403L710.571 154.934L710.761 155.089H711.005V154.403ZM719.213 154.403V155.089H719.564L719.77 154.803L719.213 154.403ZM727.419 142.967L727.694 142.339L727.185 142.116L726.862 142.567L727.419 142.967ZM735.626 146.561L735.941 145.952L735.922 145.942L735.901 145.933L735.626 146.561ZM743.833 150.809L743.517 151.418L744.014 151.675L744.366 151.241L743.833 150.809ZM752.039 140.68L751.6 140.154L751.549 140.196L751.507 140.248L752.039 140.68ZM760.246 133.818L760.542 133.2L760.144 133.009L759.806 133.292L760.246 133.818ZM768.453 137.739L768.157 138.358L768.453 138.499L768.748 138.358L768.453 137.739ZM776.66 133.818L776.819 133.151L776.583 133.094L776.364 133.2L776.66 133.818ZM784.866 135.778L784.707 136.445L784.866 136.484L785.025 136.445L784.866 135.778ZM793.073 133.818L793.513 133.292L793.249 133.071L792.914 133.151L793.073 133.818ZM801.28 140.68L800.84 141.206L801.031 141.366H801.28V140.68ZM809.487 140.68V141.366H809.937L810.116 140.952L809.487 140.68ZM817.693 121.728L817.294 121.17L817.14 121.282L817.064 121.455L817.693 121.728ZM825.9 115.847L826.299 116.405L826.344 116.372L826.384 116.333L825.9 115.847ZM834.107 107.678L833.973 107.005L833.77 107.046L833.623 107.192L834.107 107.678ZM842.314 106.044L842.448 106.717L842.542 106.698L842.629 106.654L842.314 106.044ZM850.52 101.797L850.92 101.239L850.578 100.994L850.205 101.188L850.52 101.797ZM858.727 107.678L858.328 108.235L858.727 108.522L859.127 108.235L858.727 107.678ZM866.934 101.797L867.249 101.188L866.876 100.994L866.534 101.239L866.934 101.797ZM875.14 106.044H875.826V105.628L875.456 105.435L875.14 106.044ZM875.14 147.718H875.826V147.147L875.267 147.043L875.14 147.718ZM866.934 146.189L867.059 145.515L866.91 145.488L866.762 145.525L866.934 146.189ZM858.727 148.305L858.556 148.969L858.727 149.013L858.898 148.969L858.727 148.305ZM850.52 146.189L850.692 145.525L850.544 145.488L850.395 145.515L850.52 146.189ZM842.314 147.718L842.363 148.401L842.401 148.399L842.439 148.392L842.314 147.718ZM834.107 148.305L834.058 147.622L833.964 147.628L833.875 147.66L834.107 148.305ZM825.9 151.245L826.071 151.908L826.102 151.901L826.132 151.89L825.9 151.245ZM817.693 153.36L817.522 152.696L817.373 152.735L817.255 152.833L817.693 153.36ZM809.486 160.179V160.865H809.734L809.924 160.706L809.486 160.179ZM801.28 160.179L801.082 160.836L801.178 160.865H801.28V160.179ZM793.073 157.71L793.271 157.053L793.145 157.015L793.014 157.027L793.073 157.71ZM784.866 158.416L784.808 159.099L784.866 159.104L784.925 159.099L784.866 158.416ZM776.66 157.71L776.719 157.027L776.63 157.019L776.543 157.034L776.66 157.71ZM768.453 159.121L768.337 159.796L768.453 159.816L768.569 159.796L768.453 159.121ZM760.246 157.71L760.362 157.034L760.203 157.007L760.048 157.053L760.246 157.71ZM752.039 160.179L751.842 159.521L751.801 159.534L751.76 159.552L752.039 160.179ZM743.833 163.823L743.707 164.497L743.916 164.536L744.111 164.45L743.833 163.823ZM735.626 162.295L735.751 161.62L735.742 161.618L735.733 161.617L735.626 162.295ZM727.419 161.001L727.526 160.324L727.308 160.29L727.111 160.388L727.419 161.001ZM719.212 165.116V165.802H719.374L719.52 165.729L719.212 165.116ZM711.005 165.116L710.665 165.712L710.824 165.802H711.005V165.116ZM702.799 160.431L702.408 160.995L702.433 161.012L702.459 161.027L702.799 160.431ZM694.592 154.738L694.983 154.176L694.806 154.053H694.592V154.738ZM686.385 154.738V154.053H686.053L685.848 154.313L686.385 154.738ZM678.179 165.116L678.072 165.793L678.468 165.856L678.717 165.542L678.179 165.116ZM669.972 163.823L669.846 164.497L669.855 164.499L669.865 164.5L669.972 163.823ZM661.765 162.295L661.891 161.62L661.765 161.597L661.64 161.62L661.765 162.295ZM653.558 163.823L653.335 164.472L653.507 164.53L653.684 164.497L653.558 163.823ZM645.351 161.001L645.574 160.353L645.466 160.316H645.351V161.001ZM637.145 161.001L636.889 161.638L637.013 161.688H637.145V161.001ZM628.938 157.71L629.193 157.073L629.042 157.013L628.879 157.027L628.938 157.71ZM612.525 159.121L612.408 159.796L612.496 159.811L612.583 159.804L612.525 159.121ZM604.318 157.71L604.434 157.034L604.242 157.001L604.063 157.073L604.318 157.71ZM596.111 161.001V161.688H596.244L596.366 161.638L596.111 161.001ZM587.905 161.001V160.316H587.851L587.797 160.324L587.905 161.001ZM579.697 162.295H579.012V163.097L579.805 162.972L579.697 162.295ZM579.697 146.561L579.422 145.933L579.012 146.113V146.561H579.697ZM596.111 142.281H587.905V143.652H596.111V142.281ZM603.808 133.36L595.6 142.509L596.622 143.425L604.828 134.276L603.808 133.36ZM612.82 137.12L604.613 133.2L604.023 134.437L612.229 138.358L612.82 137.12ZM620.572 135.111L612.365 137.072L612.684 138.406L620.891 136.445L620.572 135.111ZM628.779 133.151L620.572 135.111L620.891 136.445L629.097 134.485L628.779 133.151ZM637.656 142.509L629.448 133.36L628.428 134.276L636.634 143.425L637.656 142.509ZM645.351 142.281H637.145V143.652H645.351V142.281ZM654.032 150.313L645.826 142.472L644.878 143.463L653.084 151.305L654.032 150.313ZM661.45 145.952L653.243 150.199L653.874 151.418L662.08 147.17L661.45 145.952ZM670.288 150.199L662.08 145.952L661.45 147.17L669.656 151.418L670.288 150.199ZM678.454 153.775L670.247 150.18L669.697 151.437L677.903 155.031L678.454 153.775ZM685.932 146.649L677.724 153.889L678.632 154.917L686.839 147.678L685.932 146.649ZM694.592 146.478H686.385V147.849H694.592V146.478ZM702.843 147.007L694.636 146.479L694.549 147.848L702.755 148.376L702.843 147.007ZM711.44 153.873L703.234 147.16L702.365 148.223L710.571 154.934L711.44 153.873ZM719.213 153.717H711.005V155.089H719.213V153.717ZM726.862 142.567L718.655 154.003L719.77 154.803L727.976 143.367L726.862 142.567ZM735.901 145.933L727.694 142.339L727.144 143.595L735.351 147.189L735.901 145.933ZM744.148 150.199L735.941 145.952L735.311 147.17L743.517 151.418L744.148 150.199ZM751.507 140.248L743.299 150.377L744.366 151.241L752.572 141.112L751.507 140.248ZM759.806 133.292L751.6 140.154L752.479 141.206L760.686 134.344L759.806 133.292ZM768.748 137.12L760.542 133.2L759.951 134.437L768.157 138.358L768.748 137.12ZM776.364 133.2L768.157 137.12L768.748 138.358L776.955 134.437L776.364 133.2ZM785.025 135.111L776.819 133.151L776.5 134.485L784.707 136.445L785.025 135.111ZM792.914 133.151L784.707 135.111L785.025 136.445L793.233 134.485L792.914 133.151ZM801.72 140.154L793.513 133.292L792.633 134.344L800.84 141.206L801.72 140.154ZM809.487 139.993H801.28V141.366H809.487V139.993ZM817.064 121.455L808.857 140.407L810.116 140.952L818.322 122.001L817.064 121.455ZM825.501 115.29L817.294 121.17L818.093 122.286L826.299 116.405L825.501 115.29ZM833.623 107.192L825.416 115.361L826.384 116.333L834.591 108.164L833.623 107.192ZM842.18 105.372L833.973 107.005L834.241 108.351L842.448 106.717L842.18 105.372ZM850.205 101.188L841.999 105.435L842.629 106.654L850.836 102.406L850.205 101.188ZM859.127 107.121L850.92 101.239L850.121 102.355L858.328 108.235L859.127 107.121ZM866.534 101.239L858.328 107.121L859.127 108.235L867.333 102.354L866.534 101.239ZM875.456 105.435L867.249 101.188L866.619 102.406L874.825 106.654L875.456 105.435ZM875.826 183.082V106.044H874.455V183.082H875.826ZM875.826 183.082V147.718H874.455V183.082H875.826ZM875.267 147.043L867.059 145.515L866.808 146.863L875.015 148.392L875.267 147.043ZM866.762 145.525L858.556 147.641L858.898 148.969L867.105 146.853L866.762 145.525ZM858.898 147.641L850.692 145.525L850.349 146.853L858.556 148.969L858.898 147.641ZM850.395 145.515L842.188 147.043L842.439 148.392L850.645 146.863L850.395 145.515ZM842.264 147.034L834.058 147.622L834.155 148.989L842.363 148.401L842.264 147.034ZM833.875 147.66L825.669 150.599L826.132 151.89L834.338 148.951L833.875 147.66ZM825.729 150.581L817.522 152.696L817.864 154.024L826.071 151.908L825.729 150.581ZM817.255 152.833L809.049 159.651L809.924 160.706L818.132 153.888L817.255 152.833ZM809.486 159.492H801.28V160.865H809.486V159.492ZM801.477 159.521L793.271 157.053L792.876 158.367L801.082 160.836L801.477 159.521ZM793.014 157.027L784.808 157.731L784.925 159.099L793.131 158.394L793.014 157.027ZM784.925 157.731L776.719 157.027L776.6 158.394L784.808 159.099L784.925 157.731ZM776.543 157.034L768.337 158.445L768.569 159.796L776.776 158.386L776.543 157.034ZM768.569 158.445L760.362 157.034L760.129 158.386L768.337 159.796L768.569 158.445ZM760.048 157.053L751.842 159.521L752.237 160.836L760.443 158.367L760.048 157.053ZM751.76 159.552L743.554 163.196L744.111 164.45L752.317 160.806L751.76 159.552ZM743.958 163.149L735.751 161.62L735.5 162.969L743.707 164.497L743.958 163.149ZM735.733 161.617L727.526 160.324L727.312 161.68L735.519 162.972L735.733 161.617ZM727.111 160.388L718.905 164.503L719.52 165.729L727.726 161.614L727.111 160.388ZM719.212 164.43H711.005V165.802H719.212V164.43ZM711.346 164.52L703.139 159.835L702.459 161.027L710.665 165.712L711.346 164.52ZM703.189 159.868L694.983 154.176L694.201 155.302L702.408 160.995L703.189 159.868ZM694.592 154.053H686.385V155.425H694.592V154.053ZM685.848 154.313L677.64 164.691L678.717 165.542L686.923 155.164L685.848 154.313ZM678.285 164.439L670.079 163.146L669.865 164.5L678.072 165.793L678.285 164.439ZM670.097 163.149L661.891 161.62L661.64 162.969L669.846 164.497L670.097 163.149ZM661.64 161.62L653.432 163.149L653.684 164.497L661.891 162.969L661.64 161.62ZM653.782 163.175L645.574 160.353L645.129 161.651L653.335 164.472L653.782 163.175ZM645.351 160.316H637.145V161.688H645.351V160.316ZM637.4 160.365L629.193 157.073L628.683 158.346L636.889 161.638L637.4 160.365ZM628.879 157.027L620.672 157.731L620.79 159.099L628.997 158.394L628.879 157.027ZM620.672 157.731L612.466 158.438L612.583 159.804L620.79 159.099L620.672 157.731ZM612.64 158.445L604.434 157.034L604.201 158.386L612.408 159.796L612.64 158.445ZM604.063 157.073L595.855 160.365L596.366 161.638L604.573 158.346L604.063 157.073ZM596.111 160.316H587.905V161.688H596.111V160.316ZM587.797 160.324L579.591 161.617L579.805 162.972L588.011 161.68L587.797 160.324ZM579.012 146.561V162.295H580.384V146.561H579.012ZM587.629 142.339L579.422 145.933L579.973 147.189L588.18 143.595L587.629 142.339Z" fill="#FFA23E"/>
<path fill-rule="evenodd" clip-rule="evenodd" d="M587.905 161.001H596.111L604.318 157.709L612.525 159.12L620.731 158.415L628.938 157.709L637.145 161.001H645.351L653.559 163.823L661.765 162.294L669.972 163.823L678.179 165.115L686.385 154.738H694.592L702.799 160.431L711.005 165.115H719.213L727.419 161.001L735.626 162.294L743.833 163.823L752.039 160.179L760.246 157.709L768.453 159.12L776.66 157.709L784.866 158.415L793.073 157.709L801.28 160.178H809.487L817.693 153.36L825.9 151.244L834.107 148.305L842.314 147.717L850.52 146.189L858.727 148.305L866.934 146.189L875.14 147.717L875.141 169.593L866.934 169.094H858.727L850.521 167.826L842.314 168.37L834.107 168.098L825.9 167.826L817.693 169.094H809.487L801.28 170.182L793.073 169.593L784.867 170.182L776.66 170.68L768.453 171.359H760.246L752.039 171.993L743.833 170.68H735.626L727.419 169.094L719.213 169.593L711.005 170.182L702.799 168.777L694.593 167.826L686.385 168.37L678.179 167.826L669.972 168.098L661.765 167.826L653.559 168.777H645.351L637.145 166.151L628.939 165.336L620.731 164.203L612.525 163.976L604.319 171.481L596.111 172.297L587.905 171.481L579.697 163.976V180.616V162.294L587.905 161.001Z" fill="#002487" fill-opacity="0.5"/>
<path d="M596.111 161.001V161.686H596.244L596.367 161.637L596.111 161.001ZM587.905 161.001V160.315H587.851L587.797 160.323L587.905 161.001ZM604.318 157.709L604.434 157.033L604.243 157.001L604.063 157.073L604.318 157.709ZM612.525 159.12L612.408 159.796L612.496 159.811L612.583 159.803L612.525 159.12ZM628.938 157.709L629.193 157.073L629.042 157.012L628.879 157.026L628.938 157.709ZM637.145 161.001L636.889 161.637L637.013 161.686H637.145V161.001ZM645.351 161.001L645.574 160.352L645.466 160.315H645.351V161.001ZM653.559 163.823L653.335 164.471L653.507 164.53L653.684 164.497L653.559 163.823ZM661.765 162.293L661.891 161.619L661.765 161.596L661.64 161.619L661.765 162.293ZM669.972 163.823L669.846 164.497L669.856 164.498L669.865 164.5L669.972 163.823ZM678.179 165.115L678.072 165.793L678.468 165.855L678.717 165.541L678.179 165.115ZM686.385 154.738V154.052H686.053L685.848 154.313L686.385 154.738ZM694.592 154.738L694.983 154.174L694.806 154.052H694.592V154.738ZM702.799 160.431L702.408 160.994L702.433 161.011L702.459 161.026L702.799 160.431ZM711.005 165.115L710.665 165.711L710.824 165.801H711.005V165.115ZM719.213 165.115V165.801H719.374L719.52 165.729L719.213 165.115ZM727.419 161.001L727.526 160.323L727.309 160.289L727.112 160.388L727.419 161.001ZM735.626 162.293L735.751 161.619L735.742 161.618L735.733 161.616L735.626 162.293ZM743.833 163.823L743.707 164.497L743.916 164.536L744.111 164.449L743.833 163.823ZM752.039 160.178L751.842 159.521L751.801 159.533L751.761 159.551L752.039 160.178ZM760.246 157.709L760.362 157.033L760.204 157.006L760.048 157.052L760.246 157.709ZM768.453 159.12L768.337 159.796L768.453 159.816L768.57 159.796L768.453 159.12ZM776.66 157.709L776.719 157.026L776.63 157.018L776.543 157.033L776.66 157.709ZM784.866 158.414L784.808 159.098L784.866 159.103L784.925 159.098L784.866 158.414ZM793.073 157.709L793.271 157.052L793.146 157.015L793.014 157.026L793.073 157.709ZM801.28 160.177L801.082 160.835L801.179 160.864H801.28V160.177ZM809.487 160.177V160.864H809.734L809.924 160.705L809.487 160.177ZM817.693 153.36L817.522 152.695L817.373 152.734L817.255 152.832L817.693 153.36ZM825.9 151.244L826.071 151.908L826.102 151.9L826.132 151.89L825.9 151.244ZM834.107 148.305L834.058 147.62L833.964 147.627L833.875 147.659L834.107 148.305ZM842.314 147.717L842.363 148.401L842.401 148.398L842.439 148.391L842.314 147.717ZM850.52 146.189L850.692 145.524L850.544 145.486L850.395 145.514L850.52 146.189ZM858.727 148.305L858.556 148.969L858.727 149.013L858.898 148.969L858.727 148.305ZM866.934 146.189L867.059 145.514L866.91 145.486L866.762 145.524L866.934 146.189ZM875.14 147.717H875.826V147.147L875.267 147.043L875.14 147.717ZM875.141 169.593L875.099 170.277L875.826 170.321V169.593H875.141ZM866.934 169.094L866.976 168.41L866.955 168.409H866.934V169.094ZM858.727 169.094L858.623 169.772L858.674 169.78H858.727V169.094ZM850.521 167.826L850.625 167.149L850.551 167.137L850.475 167.142L850.521 167.826ZM842.314 168.37L842.292 169.055L842.325 169.056L842.359 169.054L842.314 168.37ZM825.9 167.826L825.923 167.141L825.859 167.139L825.795 167.149L825.9 167.826ZM817.693 169.094V169.78H817.747L817.798 169.772L817.693 169.094ZM809.487 169.094V168.409H809.442L809.397 168.415L809.487 169.094ZM801.28 170.182L801.23 170.865L801.301 170.87L801.37 170.861L801.28 170.182ZM793.073 169.593L793.122 168.908L793.073 168.904L793.024 168.908L793.073 169.593ZM784.867 170.182L784.908 170.866L784.916 170.865L784.867 170.182ZM776.66 170.679L776.618 169.995H776.61L776.603 169.996L776.66 170.679ZM768.453 171.359V172.045H768.481L768.509 172.043L768.453 171.359ZM760.246 171.359V170.673H760.22L760.194 170.675L760.246 171.359ZM752.039 171.993L751.931 172.67L752.011 172.683L752.093 172.677L752.039 171.993ZM743.833 170.679L743.941 170.002L743.887 169.994H743.833V170.679ZM735.626 170.679L735.496 171.353L735.56 171.366H735.626V170.679ZM727.419 169.094L727.55 168.421L727.464 168.405L727.378 168.41L727.419 169.094ZM719.213 169.593L719.171 168.907L719.164 168.908L719.213 169.593ZM711.005 170.182L710.89 170.857L710.972 170.871L711.055 170.865L711.005 170.182ZM702.799 168.777L702.914 168.101L702.896 168.098L702.878 168.096L702.799 168.777ZM694.593 167.826L694.671 167.145L694.609 167.138L694.547 167.142L694.593 167.826ZM686.385 168.37L686.34 169.054L686.385 169.057L686.43 169.054L686.385 168.37ZM678.179 167.826L678.224 167.142L678.19 167.14L678.156 167.141L678.179 167.826ZM669.972 168.098L669.949 168.783L669.972 168.784L669.995 168.783L669.972 168.098ZM661.765 167.826L661.788 167.141L661.737 167.139L661.686 167.145L661.765 167.826ZM653.559 168.777V169.463H653.598L653.637 169.458L653.559 168.777ZM645.351 168.777L645.143 169.43L645.245 169.463H645.351V168.777ZM637.145 166.15L637.354 165.497L637.285 165.475L637.213 165.468L637.145 166.15ZM628.939 165.336L628.844 166.015L628.857 166.017L628.87 166.018L628.939 165.336ZM620.731 164.203L620.826 163.523L620.788 163.518L620.75 163.517L620.731 164.203ZM612.525 163.976L612.544 163.291L612.266 163.283L612.062 163.47L612.525 163.976ZM604.319 171.481L604.386 172.164L604.613 172.141L604.781 171.988L604.319 171.481ZM596.111 172.297L596.044 172.979L596.111 172.986L596.179 172.979L596.111 172.297ZM587.905 171.481L587.442 171.988L587.61 172.141L587.837 172.163L587.905 171.481ZM579.697 163.976L580.161 163.47L579.012 162.42V163.976H579.697ZM579.697 180.616V181.301H580.384V180.616H579.697ZM579.697 180.616H579.012V181.301H579.697V180.616ZM579.697 162.293L579.591 161.616L579.012 161.707V162.293H579.697ZM596.111 160.315H587.905V161.686H596.111V160.315ZM604.063 157.073L595.856 160.364L596.367 161.637L604.573 158.346L604.063 157.073ZM612.641 158.444L604.434 157.033L604.202 158.385L612.408 159.796L612.641 158.444ZM620.673 157.731L612.466 158.437L612.583 159.803L620.79 159.098L620.673 157.731ZM628.879 157.026L620.673 157.731L620.79 159.098L628.997 158.392L628.879 157.026ZM637.4 160.364L629.193 157.073L628.683 158.346L636.889 161.637L637.4 160.364ZM645.351 160.315H637.145V161.686H645.351V160.315ZM653.782 163.173L645.574 160.352L645.129 161.649L653.335 164.471L653.782 163.173ZM661.64 161.619L653.432 163.148L653.684 164.497L661.891 162.969L661.64 161.619ZM670.097 163.148L661.891 161.619L661.64 162.969L669.846 164.497L670.097 163.148ZM678.285 164.438L670.079 163.144L669.865 164.5L678.072 165.793L678.285 164.438ZM685.848 154.313L677.64 164.689L678.717 165.541L686.923 155.164L685.848 154.313ZM694.592 154.052H686.385V155.423H694.592V154.052ZM703.189 159.867L694.983 154.174L694.201 155.301L702.408 160.994L703.189 159.867ZM711.346 164.52L703.139 159.835L702.459 161.026L710.665 165.711L711.346 164.52ZM719.213 164.43H711.005V165.801H719.213V164.43ZM727.112 160.388L718.905 164.502L719.52 165.729L727.726 161.614L727.112 160.388ZM735.733 161.616L727.526 160.323L727.312 161.678L735.519 162.972L735.733 161.616ZM743.958 163.148L735.751 161.619L735.5 162.969L743.707 164.497L743.958 163.148ZM751.761 159.551L743.554 163.195L744.111 164.449L752.317 160.804L751.761 159.551ZM760.048 157.052L751.842 159.521L752.237 160.835L760.443 158.366L760.048 157.052ZM768.57 158.444L760.362 157.033L760.13 158.385L768.337 159.796L768.57 158.444ZM776.543 157.033L768.337 158.444L768.57 159.796L776.776 158.385L776.543 157.033ZM784.925 157.731L776.719 157.026L776.601 158.392L784.808 159.098L784.925 157.731ZM793.014 157.026L784.808 157.731L784.925 159.098L793.131 158.392L793.014 157.026ZM801.477 159.521L793.271 157.052L792.876 158.366L801.082 160.835L801.477 159.521ZM809.487 159.492H801.28V160.864H809.487V159.492ZM817.255 152.832L809.049 159.651L809.924 160.705L818.132 153.887L817.255 152.832ZM825.729 150.579L817.522 152.695L817.865 154.024L826.071 151.908L825.729 150.579ZM833.875 147.659L825.669 150.597L826.132 151.89L834.338 148.95L833.875 147.659ZM842.264 147.032L834.058 147.62L834.156 148.989L842.363 148.401L842.264 147.032ZM850.395 145.514L842.188 147.043L842.439 148.391L850.646 146.863L850.395 145.514ZM858.898 147.641L850.692 145.524L850.349 146.853L858.556 148.969L858.898 147.641ZM866.762 145.524L858.556 147.641L858.898 148.969L867.105 146.853L866.762 145.524ZM875.267 147.043L867.059 145.514L866.808 146.863L875.015 148.391L875.267 147.043ZM875.826 169.593V147.717H874.455V169.593H875.826ZM866.893 169.779L875.099 170.277L875.182 168.907L866.976 168.41L866.893 169.779ZM858.727 169.78H866.934V168.409H858.727V169.78ZM850.416 168.504L858.623 169.772L858.832 168.417L850.625 167.149L850.416 168.504ZM842.359 169.054L850.566 168.51L850.475 167.142L842.268 167.685L842.359 169.054ZM834.084 168.783L842.292 169.055L842.337 167.684L834.129 167.412L834.084 168.783ZM825.878 168.512L834.084 168.783L834.129 167.412L825.923 167.141L825.878 168.512ZM817.798 169.772L826.005 168.504L825.795 167.149L817.589 168.417L817.798 169.772ZM809.487 169.78H817.693V168.409H809.487V169.78ZM801.37 170.861L809.576 169.774L809.397 168.415L801.19 169.501L801.37 170.861ZM793.024 170.277L801.23 170.865L801.329 169.497L793.122 168.908L793.024 170.277ZM784.916 170.865L793.122 170.277L793.024 168.908L784.818 169.497L784.916 170.865ZM776.702 171.364L784.908 170.866L784.825 169.496L776.618 169.995L776.702 171.364ZM768.509 172.043L776.717 171.363L776.603 169.996L768.396 170.675L768.509 172.043ZM760.246 172.045H768.453V170.673H760.246V172.045ZM752.093 172.677L760.299 172.043L760.194 170.675L751.986 171.309L752.093 172.677ZM743.725 171.357L751.931 172.67L752.148 171.316L743.941 170.002L743.725 171.357ZM735.626 171.366H743.833V169.994H735.626V171.366ZM727.289 169.767L735.496 171.353L735.756 170.006L727.55 168.421L727.289 169.767ZM719.254 170.277L727.46 169.779L727.378 168.41L719.171 168.907L719.254 170.277ZM711.055 170.865L719.262 170.277L719.164 168.908L710.956 169.497L711.055 170.865ZM702.684 169.453L710.89 170.857L711.122 169.505L702.914 168.101L702.684 169.453ZM694.513 168.507L702.72 169.458L702.878 168.096L694.671 167.145L694.513 168.507ZM686.43 169.054L694.638 168.51L694.547 167.142L686.34 167.685L686.43 169.054ZM678.134 168.51L686.34 169.054L686.43 167.685L678.224 167.142L678.134 168.51ZM669.995 168.783L678.201 168.512L678.156 167.141L669.949 167.412L669.995 168.783ZM661.743 168.512L669.949 168.783L669.995 167.412L661.788 167.141L661.743 168.512ZM653.637 169.458L661.844 168.507L661.686 167.145L653.48 168.096L653.637 169.458ZM645.351 169.463H653.559V168.092H645.351V169.463ZM636.936 166.803L645.143 169.43L645.561 168.124L637.354 165.497L636.936 166.803ZM628.87 166.018L637.077 166.833L637.213 165.468L629.006 164.652L628.87 166.018ZM620.638 164.882L628.844 166.015L629.032 164.655L620.826 163.523L620.638 164.882ZM612.506 164.662L620.712 164.888L620.75 163.517L612.544 163.291L612.506 164.662ZM604.781 171.988L612.987 164.483L612.062 163.47L603.855 170.975L604.781 171.988ZM596.179 172.979L604.386 172.164L604.25 170.799L596.044 171.615L596.179 172.979ZM587.837 172.163L596.044 172.979L596.179 171.615L587.972 170.799L587.837 172.163ZM579.235 164.483L587.442 171.988L588.367 170.975L580.161 163.47L579.235 164.483ZM580.384 180.616V163.976H579.012V180.616H580.384ZM579.012 162.293V180.616H580.384V162.293H579.012ZM587.797 160.323L579.591 161.616L579.805 162.972L588.011 161.678L587.797 160.323Z" fill="#708FFF"/>
<path d="M858.775 168.858H866.978L875.18 169.359V185.538H579.861V171.852L588.064 171.259L596.268 172.08L604.471 171.259L612.674 163.709L620.878 163.937L629.081 165.076L637.285 165.896L645.488 168.539H653.691L661.895 167.582L670.098 167.856L678.301 167.582L686.505 168.129L694.708 167.582L702.911 168.539L711.115 169.952L719.317 169.359L727.521 168.858L735.724 170.452H743.927L752.131 171.774L760.334 171.136H768.537L776.741 170.452L784.944 169.952L793.148 169.359L801.351 169.952L809.554 168.858H817.758L825.961 167.582L834.164 167.856L842.368 168.129L850.571 167.582L858.775 168.858Z" fill="#00391F" fill-opacity="0.5" stroke="#17B877" stroke-width="1.37179"/>
</g>
<path d="M244.32 0.900879H20.5739C9.49124 0.900879 0.506958 9.88516 0.506958 20.9678V189.53C0.506958 200.613 9.49124 209.597 20.5739 209.597H244.32C255.403 209.597 264.387 200.613 264.387 189.53V20.9678C264.387 9.88516 255.403 0.900879 244.32 0.900879Z" fill="black" fill-opacity="0.6"/>
<path d="M244.32 0.900879H20.5739C9.49124 0.900879 0.506958 9.88516 0.506958 20.9678V189.53C0.506958 200.613 9.49124 209.597 20.5739 209.597H244.32C255.403 209.597 264.387 200.613 264.387 189.53V20.9678C264.387 9.88516 255.403 0.900879 244.32 0.900879Z" fill="#1F1F1F" fill-opacity="0.3"/>
<path d="M107.114 36.0181H50.3481C48.1316 36.0181 46.3347 37.8149 46.3347 40.0315C46.3347 42.248 48.1316 44.0448 50.3481 44.0448H107.114C109.33 44.0448 111.127 42.248 111.127 40.0315C111.127 37.8149 109.33 36.0181 107.114 36.0181Z" fill="#1F1F1F"/>
<path d="M171.905 50.0649H59.4953C57.2787 50.0649 55.4819 51.8618 55.4819 54.0783C55.4819 56.2949 57.2787 58.0917 59.4953 58.0917H171.905C174.122 58.0917 175.919 56.2949 175.919 54.0783C175.919 51.8618 174.122 50.0649 171.905 50.0649Z" fill="#1F1F1F"/>
<path d="M244.32 64.1118H59.4953C57.2787 64.1118 55.4819 65.9087 55.4819 68.1252C55.4819 70.3417 57.2787 72.1386 59.4953 72.1386H244.32C246.536 72.1386 248.333 70.3417 248.333 68.1252C248.333 65.9087 246.536 64.1118 244.32 64.1118Z" fill="#1F1F1F"/>
<path d="M155.898 78.1587H67.1179C64.9014 78.1587 63.1045 79.9555 63.1045 82.1721C63.1045 84.3886 64.9014 86.1855 67.1179 86.1855H155.898C158.115 86.1855 159.912 84.3886 159.912 82.1721C159.912 79.9555 158.115 78.1587 155.898 78.1587Z" fill="#1F1F1F"/>
<path d="M121.596 92.2056H67.1179C64.9014 92.2056 63.1045 94.0024 63.1045 96.219C63.1045 98.4355 64.9014 100.232 67.1179 100.232H121.596C123.813 100.232 125.61 98.4355 125.61 96.219C125.61 94.0024 123.813 92.2056 121.596 92.2056Z" fill="#1F1F1F"/>
<path d="M184.101 106.252H50.3481C48.1316 106.252 46.3347 108.049 46.3347 110.266C46.3347 112.482 48.1316 114.279 50.3481 114.279H184.101C186.318 114.279 188.115 112.482 188.115 110.266C188.115 108.049 186.318 106.252 184.101 106.252Z" fill="#1F1F1F"/>
<path d="M237.46 120.299H59.4953C57.2787 120.299 55.4819 122.096 55.4819 124.313C55.4819 126.529 57.2787 128.326 59.4953 128.326H237.46C239.677 128.326 241.473 126.529 241.473 124.313C241.473 122.096 239.677 120.299 237.46 120.299Z" fill="#1F1F1F"/>
<path d="M186.389 134.346H59.4953C57.2787 134.346 55.4819 136.143 55.4819 138.36C55.4819 140.576 57.2787 142.373 59.4953 142.373H186.389C188.605 142.373 190.402 140.576 190.402 138.36C190.402 136.143 188.605 134.346 186.389 134.346Z" fill="#1F1F1F"/>
<path d="M155.898 148.393H59.4953C57.2787 148.393 55.4819 150.19 55.4819 152.406C55.4819 154.623 57.2787 156.42 59.4953 156.42H155.898C158.114 156.42 159.911 154.623 159.911 152.406C159.911 150.19 158.114 148.393 155.898 148.393Z" fill="#1F1F1F"/>
<path d="M123.883 162.44H67.1179C64.9014 162.44 63.1045 164.237 63.1045 166.453C63.1045 168.67 64.9014 170.467 67.1179 170.467H123.883C126.1 170.467 127.897 168.67 127.897 166.453C127.897 164.237 126.1 162.44 123.883 162.44Z" fill="#1F1F1F"/>
<path d="M169.619 176.487H67.1179C64.9014 176.487 63.1045 178.284 63.1045 180.5C63.1045 182.717 64.9014 184.514 67.1179 184.514H169.619C171.835 184.514 173.632 182.717 173.632 180.5C173.632 178.284 171.835 176.487 169.619 176.487Z" fill="#1F1F1F"/>
<path d="M184.102 190.534H67.1179C64.9014 190.534 63.1045 192.331 63.1045 194.547C63.1045 196.764 64.9014 198.56 67.1179 198.56H184.102C186.319 198.56 188.116 196.764 188.116 194.547C188.116 192.331 186.319 190.534 184.102 190.534Z" fill="#1F1F1F"/>
<path d="M155.898 204.581H59.4953C57.2787 204.581 55.4819 206.377 55.4819 208.594C55.4819 210.81 57.2787 212.607 59.4953 212.607H155.898C158.114 212.607 159.911 210.81 159.911 208.594C159.911 206.377 158.114 204.581 155.898 204.581Z" fill="#1F1F1F"/>
<path opacity="0.5" d="M37.7478 36.0181H36.6275C34.4109 36.0181 32.6141 37.8149 32.6141 40.0315C32.6141 42.248 34.4109 44.0448 36.6275 44.0448H37.7478C39.9643 44.0448 41.7612 42.248 41.7612 40.0315C41.7612 37.8149 39.9643 36.0181 37.7478 36.0181Z" fill="#1F1F1F"/>
<path opacity="0.5" d="M37.7478 50.0649H36.6275C34.4109 50.0649 32.6141 51.8618 32.6141 54.0783C32.6141 56.2949 34.4109 58.0917 36.6275 58.0917H37.7478C39.9643 58.0917 41.7612 56.2949 41.7612 54.0783C41.7612 51.8618 39.9643 50.0649 37.7478 50.0649Z" fill="#1F1F1F"/>
<path opacity="0.5" d="M37.7478 64.1118H36.6275C34.4109 64.1118 32.6141 65.9087 32.6141 68.1252C32.6141 70.3417 34.4109 72.1386 36.6275 72.1386H37.7478C39.9643 72.1386 41.7612 70.3417 41.7612 68.1252C41.7612 65.9087 39.9643 64.1118 37.7478 64.1118Z" fill="#1F1F1F"/>
<path opacity="0.5" d="M37.7478 78.1587H36.6275C34.4109 78.1587 32.6141 79.9555 32.6141 82.1721C32.6141 84.3886 34.4109 86.1855 36.6275 86.1855H37.7478C39.9643 86.1855 41.7612 84.3886 41.7612 82.1721C41.7612 79.9555 39.9643 78.1587 37.7478 78.1587Z" fill="#1F1F1F"/>
<path opacity="0.5" d="M37.7478 92.2056H36.6275C34.4109 92.2056 32.6141 94.0024 32.6141 96.219C32.6141 98.4355 34.4109 100.232 36.6275 100.232H37.7478C39.9643 100.232 41.7612 98.4355 41.7612 96.219C41.7612 94.0024 39.9643 92.2056 37.7478 92.2056Z" fill="#1F1F1F"/>
<path opacity="0.5" d="M37.7478 106.252H36.6275C34.4109 106.252 32.6141 108.049 32.6141 110.266C32.6141 112.482 34.4109 114.279 36.6275 114.279H37.7478C39.9643 114.279 41.7612 112.482 41.7612 110.266C41.7612 108.049 39.9643 106.252 37.7478 106.252Z" fill="#1F1F1F"/>
<path opacity="0.5" d="M37.7478 120.299H36.6275C34.4109 120.299 32.6141 122.096 32.6141 124.313C32.6141 126.529 34.4109 128.326 36.6275 128.326H37.7478C39.9643 128.326 41.7612 126.529 41.7612 124.313C41.7612 122.096 39.9643 120.299 37.7478 120.299Z" fill="#1F1F1F"/>
<path opacity="0.5" d="M37.7478 134.346H36.6275C34.4109 134.346 32.6141 136.143 32.6141 138.36C32.6141 140.576 34.4109 142.373 36.6275 142.373H37.7478C39.9643 142.373 41.7612 140.576 41.7612 138.36C41.7612 136.143 39.9643 134.346 37.7478 134.346Z" fill="#1F1F1F"/>
<path opacity="0.5" d="M37.7478 148.393H36.6275C34.4109 148.393 32.6141 150.19 32.6141 152.406C32.6141 154.623 34.4109 156.42 36.6275 156.42H37.7478C39.9643 156.42 41.7612 154.623 41.7612 152.406C41.7612 150.19 39.9643 148.393 37.7478 148.393Z" fill="#1F1F1F"/>
<path opacity="0.5" d="M37.7478 162.44H36.6275C34.4109 162.44 32.6141 164.237 32.6141 166.453C32.6141 168.67 34.4109 170.467 36.6275 170.467H37.7478C39.9643 170.467 41.7612 168.67 41.7612 166.453C41.7612 164.237 39.9643 162.44 37.7478 162.44Z" fill="#1F1F1F"/>
<path opacity="0.5" d="M37.7478 176.487H36.6275C34.4109 176.487 32.6141 178.284 32.6141 180.5C32.6141 182.717 34.4109 184.514 36.6275 184.514H37.7478C39.9643 184.514 41.7612 182.717 41.7612 180.5C41.7612 178.284 39.9643 176.487 37.7478 176.487Z" fill="#1F1F1F"/>
<path opacity="0.5" d="M37.7478 190.534H36.6275C34.4109 190.534 32.6141 192.331 32.6141 194.547C32.6141 196.764 34.4109 198.56 36.6275 198.56H37.7478C39.9643 198.56 41.7612 196.764 41.7612 194.547C41.7612 192.331 39.9643 190.534 37.7478 190.534Z" fill="#1F1F1F"/>
<path opacity="0.5" d="M37.7478 204.581H36.6275C34.4109 204.581 32.6141 206.377 32.6141 208.594C32.6141 210.81 34.4109 212.607 36.6275 212.607H37.7478C39.9643 212.607 41.7612 210.81 41.7612 208.594C41.7612 206.377 39.9643 204.581 37.7478 204.581Z" fill="#1F1F1F"/>
<path d="M182.615 81.6704H82.2798C77.8467 81.6704 74.253 85.2641 74.253 89.6972V120.801C74.253 125.234 77.8467 128.828 82.2798 128.828H182.615C187.048 128.828 190.641 125.234 190.641 120.801V89.6972C190.641 85.2641 187.048 81.6704 182.615 81.6704Z" fill="#4285F4"/>
<path d="M123.626 104.839L125.993 105.841C126.263 105.288 126.551 104.737 126.856 104.189C127.162 103.642 127.492 103.119 127.848 102.622L126.163 102.302L123.626 104.839ZM127.933 107.355L131.344 110.767C132.169 110.455 133.068 109.967 134.041 109.307C135.016 108.646 135.929 107.888 136.782 107.035C138.189 105.629 139.287 104.061 140.076 102.334C140.865 100.607 141.216 99.0183 141.131 97.5684C139.681 97.4831 138.093 97.8349 136.366 98.6239C134.638 99.4129 133.071 100.511 131.665 101.918C130.812 102.771 130.054 103.684 129.393 104.658C128.733 105.632 128.245 106.531 127.933 107.355ZM133.903 104.797C133.433 104.327 133.2 103.759 133.2 103.091C133.2 102.423 133.433 101.854 133.903 101.385C134.373 100.916 134.94 100.681 135.609 100.681C136.277 100.681 136.846 100.916 137.314 101.385C137.784 101.854 138.019 102.423 138.019 103.091C138.019 103.759 137.784 104.327 137.314 104.797C136.846 105.266 136.277 105.5 135.609 105.5C134.94 105.5 134.373 105.266 133.903 104.797ZM133.861 115.074L136.398 112.537L136.078 110.852C135.581 111.208 135.058 111.538 134.511 111.844C133.963 112.149 133.412 112.437 132.859 112.707L133.861 115.074ZM143.306 95.3935C143.691 97.8243 143.452 100.188 142.592 102.483C141.732 104.779 140.257 106.972 138.167 109.061L138.764 112.047C138.85 112.444 138.832 112.839 138.711 113.23C138.591 113.621 138.388 113.958 138.104 114.242L133.05 119.296L130.513 113.347L125.353 108.187L119.404 105.65L124.458 100.596C124.741 100.312 125.079 100.109 125.47 99.9885C125.861 99.8677 126.256 99.85 126.653 99.9353L129.639 100.533C131.728 98.4427 133.921 96.9679 136.217 96.1078C138.512 95.2478 140.875 95.0096 143.306 95.3935Z" fill="white"/>
<path d="M559.372 0.900879H335.625C324.542 0.900879 315.558 9.88516 315.558 20.9678V189.53C315.558 200.613 324.542 209.597 335.625 209.597H559.372C570.454 209.597 579.439 200.613 579.439 189.53V20.9678C579.439 9.88516 570.454 0.900879 559.372 0.900879Z" fill="black" fill-opacity="0.6"/>
<path d="M559.372 0.900879H335.625C324.542 0.900879 315.558 9.88516 315.558 20.9678V189.53C315.558 200.613 324.542 209.597 335.625 209.597H559.372C570.454 209.597 579.439 200.613 579.439 189.53V20.9678C579.439 9.88516 570.454 0.900879 559.372 0.900879Z" fill="#1F1F1F" fill-opacity="0.3"/>
<path d="M347.414 44.2958C353.51 44.2958 358.451 39.3545 358.451 33.259C358.451 27.1635 353.51 22.2222 347.414 22.2222C341.319 22.2222 336.378 27.1635 336.378 33.259C336.378 39.3545 341.319 44.2958 347.414 44.2958Z" fill="#474747"/>
<path d="M493.401 29.2456H480.358C479.25 29.2456 478.351 30.144 478.351 31.2523V35.2657C478.351 36.374 479.25 37.2724 480.358 37.2724H493.401C494.51 37.2724 495.408 36.374 495.408 35.2657V31.2523C495.408 30.144 494.51 29.2456 493.401 29.2456Z" fill="#303030"/>
<path opacity="0.6" d="M514.472 29.2456H501.428C500.32 29.2456 499.422 30.144 499.422 31.2523V35.2657C499.422 36.374 500.32 37.2724 501.428 37.2724H514.472C515.58 37.2724 516.478 36.374 516.478 35.2657V31.2523C516.478 30.144 515.58 29.2456 514.472 29.2456Z" fill="#303030"/>
<path opacity="0.4" d="M535.542 29.2456H522.499C521.39 29.2456 520.492 30.144 520.492 31.2523V35.2657C520.492 36.374 521.39 37.2724 522.499 37.2724H535.542C536.65 37.2724 537.549 36.374 537.549 35.2657V31.2523C537.549 30.144 536.65 29.2456 535.542 29.2456Z" fill="#303030"/>
<path opacity="0.2" d="M556.612 29.2456H543.569C542.461 29.2456 541.562 30.144 541.562 31.2523V35.2657C541.562 36.374 542.461 37.2724 543.569 37.2724H556.612C557.721 37.2724 558.619 36.374 558.619 35.2657V31.2523C558.619 30.144 557.721 29.2456 556.612 29.2456Z" fill="#303030"/>
<path d="M550.592 59.8477H344.906C340.473 59.8477 336.879 63.4414 336.879 67.8744V120.55C336.879 124.983 340.473 128.577 344.906 128.577H550.592C555.025 128.577 558.619 124.983 558.619 120.55V67.8744C558.619 63.4414 555.025 59.8477 550.592 59.8477Z" fill="#303030"/>
<path opacity="0.8" d="M396.272 138.61H344.906C340.473 138.61 336.879 142.204 336.879 146.637V180.249C336.879 184.682 340.473 188.276 344.906 188.276H396.272C400.705 188.276 404.298 184.682 404.298 180.249V146.637C404.298 142.204 400.705 138.61 396.272 138.61Z" fill="#1F1F1F"/>
<path opacity="0.5" d="M473.432 138.61H422.066C417.633 138.61 414.04 142.204 414.04 146.637V180.249C414.04 184.682 417.633 188.276 422.066 188.276H473.432C477.865 188.276 481.459 184.682 481.459 180.249V146.637C481.459 142.204 477.865 138.61 473.432 138.61Z" fill="#1F1F1F"/>
<path opacity="0.3" d="M550.592 138.61H499.227C494.794 138.61 491.2 142.204 491.2 146.637V180.249C491.2 184.682 494.794 188.276 499.227 188.276H550.592C555.026 188.276 558.619 184.682 558.619 180.249V146.637C558.619 142.204 555.026 138.61 550.592 138.61Z" fill="#1F1F1F"/>
<path d="M244.32 0.900879H20.5739C9.49124 0.900879 0.506958 9.88516 0.506958 20.9678V189.53C0.506958 200.613 9.49124 209.597 20.5739 209.597H244.32C255.403 209.597 264.387 200.613 264.387 189.53V20.9678C264.387 9.88516 255.403 0.900879 244.32 0.900879Z" stroke="#303030" stroke-width="1.00335"/>
<path d="M264.387 104.85H315.558" stroke="#303030" stroke-width="1.00335"/>
<path d="M559.372 0.900879H335.625C324.542 0.900879 315.558 9.88516 315.558 20.9678V189.53C315.558 200.613 324.542 209.597 335.625 209.597H559.372C570.454 209.597 579.439 200.613 579.439 189.53V20.9678C579.439 9.88516 570.454 0.900879 559.372 0.900879Z" stroke="#303030" stroke-width="1.00335"/>
<path d="M579.439 104.85H631.613" stroke="#303030" stroke-width="1.00335"/>
<path d="M875.426 0.900879H651.68C640.597 0.900879 631.613 9.88516 631.613 20.9678V189.53C631.613 200.613 640.597 209.597 651.68 209.597H875.426C886.509 209.597 895.493 200.613 895.493 189.53V20.9678C895.493 9.88516 886.509 0.900879 875.426 0.900879Z" stroke="#303030" stroke-width="1.00335"/>
</svg>
