<svg width="220" height="119" viewBox="0 0 220 119" fill="none" xmlns="http://www.w3.org/2000/svg">
<mask id="mask0_1_871" style="mask-type:luminance" maskUnits="userSpaceOnUse" x="0" y="0" width="220" height="119">
<path d="M181.435 6.88677e-05L0 20.8286L38.5652 118.819L220 97.9903L181.435 6.88677e-05Z" fill="white"/>
</mask>
<g mask="url(#mask0_1_871)">
<path d="M152.727 3.29572L28.7081 17.5329C12.853 19.3531 2.732 27.7703 6.10209 36.3334L32.4631 103.314C35.8332 111.877 51.4182 117.343 67.2733 115.523L191.292 101.286C207.147 99.4659 217.268 91.0486 213.898 82.4855L187.537 15.5049C184.167 6.9418 168.582 1.47558 152.727 3.29572Z" fill="#FDADEE"/>
<path d="M108.811 88.0025L131.396 85.4098L131.4 85.4208C132.995 85.2377 134.028 84.3863 133.687 83.5193L128.497 70.3332L152.235 74.4991C152.991 74.6258 153.791 74.5973 154.504 74.4002C155.218 74.2029 155.739 73.8716 155.984 73.4626L163.124 61.6023C163.636 60.7586 162.778 59.853 161.216 59.5764L137.478 55.4105L156.026 46.3902C157.245 45.7943 157.337 44.7795 156.244 44.1201L140.789 34.8538C140.257 34.5339 139.521 34.347 138.731 34.3224C137.931 34.2988 137.176 34.4431 136.584 34.7305L118.035 43.7507L112.846 30.5646C112.507 29.7032 110.93 29.1455 109.325 29.3297L86.7397 31.9225C85.145 32.1056 84.1123 32.957 84.4536 33.824L89.6431 47.0101L65.9047 42.8444C64.345 42.5733 62.6658 43.0314 62.1536 43.8753L55.0135 55.7354C54.5014 56.5793 55.3599 57.4847 56.9221 57.7613L80.6603 61.9274L62.1117 70.9477C60.8929 71.5435 60.8009 72.5583 61.8938 73.2176L77.3486 82.4842C78.4519 83.1423 80.331 83.1921 81.5516 82.6018L100.101 73.5814L105.29 86.7677C105.629 87.6292 107.206 88.1868 108.811 88.0025Z" fill="black"/>
</g>
</svg>
